<svg height="2510" width="720" xmlns="http://www.w3.org/2000/svg">
<rect height="2510" fill="#555" width="720"></rect>
<text fill="#7f7" font-family="Courier New" font-size="12" xml:space="preserve">
<tspan x="10" y="26">25 megabytes installed</tspan>
<tspan x="10" y="42"></tspan>
<tspan x="10" y="58">node_modules</tspan>
<tspan x="10" y="74">└─┬ norch@0.8.12 </tspan>
<tspan x="10" y="90">  ├─┬ bunyan@1.8.10 </tspan>
<tspan x="10" y="106">  │ ├─┬ dtrace-provider@0.8.1 </tspan>
<tspan x="10" y="122">  │ │ └── nan@2.6.2 </tspan>
<tspan x="10" y="138">  │ ├── moment@2.18.1 </tspan>
<tspan x="10" y="154">  │ ├─┬ mv@2.1.1 </tspan>
<tspan x="10" y="170">  │ │ ├─┬ mkdirp@0.5.1 </tspan>
<tspan x="10" y="186">  │ │ │ └── minimist@0.0.8 </tspan>
<tspan x="10" y="202">  │ │ ├── ncp@2.0.0 </tspan>
<tspan x="10" y="218">  │ │ └─┬ rimraf@2.4.5 </tspan>
<tspan x="10" y="234">  │ │   └─┬ glob@6.0.4 </tspan>
<tspan x="10" y="250">  │ │     ├── inflight@1.0.6 </tspan>
<tspan x="10" y="266">  │ │     ├─┬ minimatch@3.0.3 </tspan>
<tspan x="10" y="282">  │ │     │ └─┬ brace-expansion@1.1.7 </tspan>
<tspan x="10" y="298">  │ │     │   ├── balanced-match@0.4.2 </tspan>
<tspan x="10" y="314">  │ │     │   └── concat-map@0.0.1 </tspan>
<tspan x="10" y="330">  │ │     └── path-is-absolute@1.0.1 </tspan>
<tspan x="10" y="346">  │ └── safe-json-stringify@1.0.4 </tspan>
<tspan x="10" y="362">  ├── colors@1.1.2 </tspan>
<tspan x="10" y="378">  ├─┬ commander@2.9.0 </tspan>
<tspan x="10" y="394">  │ └── graceful-readlink@1.0.1 </tspan>
<tspan x="10" y="410">  ├─┬ JSONStream@1.3.1 </tspan>
<tspan x="10" y="426">  │ ├── jsonparse@1.3.0 </tspan>
<tspan x="10" y="442">  │ └── through@2.3.8 </tspan>
<tspan x="10" y="458">  ├── lodash@4.17.4 </tspan>
<tspan x="10" y="474">  ├─┬ restify@4.3.0 </tspan>
<tspan x="10" y="490">  │ ├── assert-plus@0.1.5 </tspan>
<tspan x="10" y="506">  │ ├─┬ backoff@2.5.0 </tspan>
<tspan x="10" y="522">  │ │ └── precond@0.2.3 </tspan>
<tspan x="10" y="538">  │ ├─┬ csv@0.4.6 </tspan>
<tspan x="10" y="554">  │ │ ├── csv-generate@0.0.6 </tspan>
<tspan x="10" y="570">  │ │ ├── csv-parse@1.2.0 </tspan>
<tspan x="10" y="586">  │ │ ├── csv-stringify@0.0.8 </tspan>
<tspan x="10" y="602">  │ │ └── stream-transform@0.1.2 </tspan>
<tspan x="10" y="618">  │ ├── dtrace-provider@0.6.0 </tspan>
<tspan x="10" y="634">  │ ├── escape-regexp-component@1.0.2 </tspan>
<tspan x="10" y="650">  │ ├── formidable@1.1.1 </tspan>
<tspan x="10" y="666">  │ ├─┬ http-signature@0.11.0 </tspan>
<tspan x="10" y="682">  │ │ ├── asn1@0.1.11 </tspan>
<tspan x="10" y="698">  │ │ └── ctype@0.5.3 </tspan>
<tspan x="10" y="714">  │ ├── keep-alive-agent@0.0.1 </tspan>
<tspan x="10" y="730">  │ ├─┬ lru-cache@4.0.2 </tspan>
<tspan x="10" y="746">  │ │ ├── pseudomap@1.0.2 </tspan>
<tspan x="10" y="762">  │ │ └── yallist@2.1.2 </tspan>
<tspan x="10" y="778">  │ ├── mime@1.3.4 </tspan>
<tspan x="10" y="794">  │ ├── negotiator@0.6.1 </tspan>
<tspan x="10" y="810">  │ ├── node-uuid@1.4.8 </tspan>
<tspan x="10" y="826">  │ ├─┬ once@1.4.0 </tspan>
<tspan x="10" y="842">  │ │ └── wrappy@1.0.2 </tspan>
<tspan x="10" y="858">  │ ├── qs@6.4.0 </tspan>
<tspan x="10" y="874">  │ ├── semver@4.3.6 </tspan>
<tspan x="10" y="890">  │ ├─┬ spdy@3.4.4 </tspan>
<tspan x="10" y="906">  │ │ ├─┬ debug@2.6.4 </tspan>
<tspan x="10" y="922">  │ │ │ └── ms@0.7.3 </tspan>
<tspan x="10" y="938">  │ │ ├── handle-thing@1.2.5 </tspan>
<tspan x="10" y="954">  │ │ ├── http-deceiver@1.2.7 </tspan>
<tspan x="10" y="970">  │ │ ├── select-hose@2.0.0 </tspan>
<tspan x="10" y="986">  │ │ └─┬ spdy-transport@2.0.18 </tspan>
<tspan x="10" y="1002">  │ │   ├── hpack.js@2.1.6 </tspan>
<tspan x="10" y="1018">  │ │   ├── obuf@1.1.1 </tspan>
<tspan x="10" y="1034">  │ │   ├─┬ readable-stream@2.2.9 </tspan>
<tspan x="10" y="1050">  │ │   │ ├── buffer-shims@1.0.0 </tspan>
<tspan x="10" y="1066">  │ │   │ ├── isarray@1.0.0 </tspan>
<tspan x="10" y="1082">  │ │   │ ├── process-nextick-args@1.0.7 </tspan>
<tspan x="10" y="1098">  │ │   │ ├── string_decoder@1.0.0 </tspan>
<tspan x="10" y="1114">  │ │   │ └── util-deprecate@1.0.2 </tspan>
<tspan x="10" y="1130">  │ │   └─┬ wbuf@1.7.2 </tspan>
<tspan x="10" y="1146">  │ │     └── minimalistic-assert@1.0.0 </tspan>
<tspan x="10" y="1162">  │ ├── tunnel-agent@0.4.3 </tspan>
<tspan x="10" y="1178">  │ ├─┬ vasync@1.6.3 </tspan>
<tspan x="10" y="1194">  │ │ └── verror@1.6.0 </tspan>
<tspan x="10" y="1210">  │ └─┬ verror@1.9.0 </tspan>
<tspan x="10" y="1226">  │   ├── assert-plus@1.0.0 </tspan>
<tspan x="10" y="1242">  │   ├── core-util-is@1.0.2 </tspan>
<tspan x="10" y="1258">  │   └── extsprintf@1.2.0 </tspan>
<tspan x="10" y="1274">  └─┬ search-index@0.9.17 </tspan>
<tspan x="10" y="1290">    ├─┬ leveldown@1.6.0 </tspan>
<tspan x="10" y="1306">    │ ├── abstract-leveldown@2.6.1 </tspan>
<tspan x="10" y="1322">    │ ├── bindings@1.2.1 </tspan>
<tspan x="10" y="1338">    │ ├── fast-future@1.0.2 </tspan>
<tspan x="10" y="1354">    │ ├── nan@2.5.1 </tspan>
<tspan x="10" y="1370">    │ └─┬ prebuild-install@2.1.2 </tspan>
<tspan x="10" y="1386">    │   ├── expand-template@1.0.3 </tspan>
<tspan x="10" y="1402">    │   ├── github-from-package@0.0.0 </tspan>
<tspan x="10" y="1418">    │   ├── minimist@1.2.0 </tspan>
<tspan x="10" y="1434">    │   ├── node-abi@2.0.0 </tspan>
<tspan x="10" y="1450">    │   ├── noop-logger@0.1.1 </tspan>
<tspan x="10" y="1466">    │   ├─┬ npmlog@4.0.2 </tspan>
<tspan x="10" y="1482">    │   │ ├─┬ are-we-there-yet@1.1.4 </tspan>
<tspan x="10" y="1498">    │   │ │ └── delegates@1.0.0 </tspan>
<tspan x="10" y="1514">    │   │ ├── console-control-strings@1.1.0 </tspan>
<tspan x="10" y="1530">    │   │ ├─┬ gauge@2.7.4 </tspan>
<tspan x="10" y="1546">    │   │ │ ├── aproba@1.1.1 </tspan>
<tspan x="10" y="1562">    │   │ │ ├── has-unicode@2.0.1 </tspan>
<tspan x="10" y="1578">    │   │ │ ├── object-assign@4.1.1 </tspan>
<tspan x="10" y="1594">    │   │ │ ├── signal-exit@3.0.2 </tspan>
<tspan x="10" y="1610">    │   │ │ ├─┬ string-width@1.0.2 </tspan>
<tspan x="10" y="1626">    │   │ │ │ ├── code-point-at@1.1.0 </tspan>
<tspan x="10" y="1642">    │   │ │ │ └─┬ is-fullwidth-code-point@1.0.0 </tspan>
<tspan x="10" y="1658">    │   │ │ │   └── number-is-nan@1.0.1 </tspan>
<tspan x="10" y="1674">    │   │ │ ├─┬ strip-ansi@3.0.1 </tspan>
<tspan x="10" y="1690">    │   │ │ │ └── ansi-regex@2.1.1 </tspan>
<tspan x="10" y="1706">    │   │ │ └── wide-align@1.1.0 </tspan>
<tspan x="10" y="1722">    │   │ └── set-blocking@2.0.0 </tspan>
<tspan x="10" y="1738">    │   ├── os-homedir@1.0.2 </tspan>
<tspan x="10" y="1754">    │   ├─┬ pump@1.0.2 </tspan>
<tspan x="10" y="1770">    │   │ └── end-of-stream@1.4.0 </tspan>
<tspan x="10" y="1786">    │   ├─┬ rc@1.2.1 </tspan>
<tspan x="10" y="1802">    │   │ ├── deep-extend@0.4.1 </tspan>
<tspan x="10" y="1818">    │   │ ├── ini@1.3.4 </tspan>
<tspan x="10" y="1834">    │   │ ├── minimist@1.2.0 </tspan>
<tspan x="10" y="1850">    │   │ └── strip-json-comments@2.0.1 </tspan>
<tspan x="10" y="1866">    │   ├─┬ simple-get@1.4.3 </tspan>
<tspan x="10" y="1882">    │   │ └── unzip-response@1.0.2 </tspan>
<tspan x="10" y="1898">    │   └─┬ tar-fs@1.15.2 </tspan>
<tspan x="10" y="1914">    │     ├── chownr@1.0.1 </tspan>
<tspan x="10" y="1930">    │     └─┬ tar-stream@1.5.2 </tspan>
<tspan x="10" y="1946">    │       └── bl@1.2.0 </tspan>
<tspan x="10" y="1962">    ├─┬ levelup@1.3.5 </tspan>
<tspan x="10" y="1978">    │ ├─┬ deferred-leveldown@1.2.1 </tspan>
<tspan x="10" y="1994">    │ │ └── abstract-leveldown@2.4.1 </tspan>
<tspan x="10" y="2010">    │ ├── level-codec@6.1.0 </tspan>
<tspan x="10" y="2026">    │ ├─┬ level-errors@1.0.4 </tspan>
<tspan x="10" y="2042">    │ │ └─┬ errno@0.1.4 </tspan>
<tspan x="10" y="2058">    │ │   └── prr@0.0.0 </tspan>
<tspan x="10" y="2074">    │ ├─┬ level-iterator-stream@1.3.1 </tspan>
<tspan x="10" y="2090">    │ │ ├── inherits@2.0.3 </tspan>
<tspan x="10" y="2106">    │ │ └─┬ readable-stream@1.1.14 </tspan>
<tspan x="10" y="2122">    │ │   ├── isarray@0.0.1 </tspan>
<tspan x="10" y="2138">    │ │   └── string_decoder@0.10.31 </tspan>
<tspan x="10" y="2154">    │ ├── prr@1.0.1 </tspan>
<tspan x="10" y="2170">    │ ├── semver@5.1.1 </tspan>
<tspan x="10" y="2186">    │ └── xtend@4.0.1 </tspan>
<tspan x="10" y="2202">    ├─┬ search-index-adder@0.2.2 </tspan>
<tspan x="10" y="2218">    │ ├── async@2.3.0 </tspan>
<tspan x="10" y="2234">    │ ├─┬ docproc@0.0.10 </tspan>
<tspan x="10" y="2250">    │ │ ├── term-frequency@0.0.15 </tspan>
<tspan x="10" y="2266">    │ │ └─┬ term-vector@0.1.2 </tspan>
<tspan x="10" y="2282">    │ │   └── lodash.isequal@4.5.0 </tspan>
<tspan x="10" y="2298">    │ └─┬ pumpify@1.3.5 </tspan>
<tspan x="10" y="2314">    │   └─┬ duplexify@3.5.0 </tspan>
<tspan x="10" y="2330">    │     ├─┬ end-of-stream@1.0.0 </tspan>
<tspan x="10" y="2346">    │     │ └── once@1.3.3 </tspan>
<tspan x="10" y="2362">    │     └── stream-shift@1.0.0 </tspan>
<tspan x="10" y="2378">    └─┬ search-index-searcher@0.1.28 </tspan>
<tspan x="10" y="2394">      ├── intersect-arrays-to-stream@0.0.3 </tspan>
<tspan x="10" y="2410">      ├── lodash.difference@4.5.0 </tspan>
<tspan x="10" y="2426">      ├── lodash.intersection@4.4.0 </tspan>
<tspan x="10" y="2442">      ├── lodash.sortedindexof@4.1.0 </tspan>
<tspan x="10" y="2458">      ├── lodash.spread@4.2.1 </tspan>
<tspan x="10" y="2474">      ├── lodash.union@4.6.0 </tspan>
<tspan x="10" y="2490">      └── lodash.uniq@4.5.0</tspan>
</text>
</svg>
